<svg width="580" height="400" xmlns="http://www.w3.org/2000/svg">
 <!-- Created with Method Draw - http://github.com/duopixel/Method-Draw/ -->

 <g>
  <title>background</title>
  <rect fill="#fff" id="canvas_background" height="402" width="582" y="-1" x="-1"/>
  <g display="none" id="canvasGrid">
   <rect fill="url(#gridpattern)" stroke-width="0" y="0" x="0" height="100%" width="100%" id="svg_2"/>
  </g>
 </g>
 <g>
  <title>Layer 1</title>
  <rect id="svg_16" height="220" width="580" y="0" x="0.499808" stroke-opacity="null" stroke-width="0" stroke="#000" fill="#B1FFFF"/>
  <rect id="svg_15" height="180" width="580" y="220" x="0.499786" stroke-opacity="null" stroke-width="0" stroke="#000" fill="#729C62"/>
  <path id="svg_1" d="m147.181793,197.594376c-6.357666,-11.315933 -14.135269,-20.476364 -21.936913,-26.885391c-9.103371,6.568909 -20.190338,10.56926 -32.277962,10.56926c-12.111565,0 -23.215088,-4.007782 -32.301865,-10.56926c-7.801529,6.409027 -15.5877,15.569458 -21.960487,26.885391c-14.793278,26.270767 -16.421341,53.219131 -3.643684,60.206131c5.723251,3.147156 11.722588,0.801453 17.921143,-5.083435c-1.087265,5.966553 -1.721382,12.433746 -1.721382,19.197784c0,30.052002 11.849327,54.395844 26.451553,54.395844c8.80233,0 13.159546,-8.864197 15.254723,-22.435333c2.086586,13.571136 6.443787,22.435333 15.214012,22.435333c14.627472,0 26.476875,-24.343842 26.476875,-54.395844c0,-6.764038 -0.635651,-13.231232 -1.746613,-19.197784c6.213852,5.884888 12.206284,8.230591 17.944717,5.083435c12.769516,-6.987 11.119141,-33.935364 -3.674118,-60.206131zm-54.230331,-26.568695c24.571297,0 44.499512,-19.635452 44.499512,-43.858238s-19.928215,-43.857941 -44.499512,-43.857941c-24.579567,0 -44.524567,19.639542 -44.524567,43.857941s19.945,43.858238 44.524567,43.858238z" stroke-width="1.5" stroke="#000" fill="#fff"/>
  <path id="svg_5" d="m411.226501,40.216576c-7.097687,0 -13.189789,4.208344 -16.171936,10.283768c-1.190979,-0.760162 -2.504608,-1.220486 -3.906647,-1.220486c-4.239655,0 -7.767792,3.899555 -8.858185,9.193085c-1.861267,-0.841145 -4.02536,-1.350376 -6.336975,-1.350376c-6.934998,0 -12.560486,4.338261 -12.560486,9.686539c0,4.827698 4.613617,8.796532 10.607086,9.530716c-0.268585,0.521065 -0.476959,1.037102 -0.476959,1.584152c0,5.120628 12.270172,9.296959 27.392273,9.296959c15.122009,0 27.392242,-4.176331 27.392242,-9.296959c0,-0.344521 -0.187012,-0.652016 -0.295258,-0.9869c0.662354,0.18837 1.318237,0.38958 2.044128,0.38958c4.045471,0.000053 7.336487,-3.142784 7.336487,-7.011681c0,-3.868988 -3.291016,-7.011703 -7.336487,-7.011703c-0.495728,0 -0.917175,0.195797 -1.385437,0.28561c0.409424,-1.546951 0.681396,-3.12545 0.681396,-4.804314c0,-10.241291 -8.108063,-18.567989 -18.125244,-18.567989l0,0z" stroke-opacity="null" stroke-width="0" stroke="#000" fill="#ffffff"/>
  <path id="svg_4" d="m180.645905,39.568451l0,0c0,-7.75922 10.515594,-14.048153 23.489349,-14.048153l10.67804,0l0,0l51.248169,0l96.093323,0c6.229858,0 12.203491,1.480232 16.607605,4.114353c4.407166,2.63406 6.883484,6.207375 6.883484,9.9338l0,35.119255l0,0l0,21.070869l0,0c0,7.758179 -10.518799,14.048126 -23.491089,14.048126l-96.093323,0l-66.951508,35.719864l15.703339,-35.719864l-10.67804,0c-12.973755,0 -23.489349,-6.289948 -23.489349,-14.048126l0,0l0,-21.070869l0,-35.119255zl0,35.119255" fill-opacity="null" stroke-opacity="null" stroke-width="1.5" stroke="#000" fill="#fff"/>
  <path id="svg_6" d="m187.798889,273.68869c0,0.701996 1.606293,1.271637 3.589539,1.271637c1.985611,0 3.591965,-0.569641 3.591965,-1.271637c0,-0.703491 -1.606354,-1.273132 -3.591965,-1.273132c-1.983246,0 -3.589539,0.569641 -3.589539,1.273132zm7.360886,9.140778c0,1.757111 4.017212,3.181274 8.976593,3.181274c4.959351,0 8.975983,-1.424164 8.975983,-3.181274c0,-1.757233 -4.016632,-3.181274 -8.975983,-3.181274c-4.959381,0 -8.976593,1.424042 -8.976593,3.181274zm17.054657,13.85965c0,4.85907 13.978958,8.795258 31.237091,8.795258c17.258194,0 31.237411,-3.936188 31.237411,-8.795258c0,-4.857452 -13.979218,-8.795135 -31.237411,-8.795135c-17.258133,0 -31.237091,3.937683 -31.237091,8.795135zm-26.809082,39.811127c0,20.94754 47.882446,37.915375 106.998123,37.915375c59.115417,0 106.998047,-16.967834 106.998047,-37.915375c0,-20.947601 -47.882629,-37.915436 -106.998047,-37.915436c-59.115677,0 -106.998123,16.967834 -106.998123,37.915436z" fill-opacity="null" stroke-opacity="null" stroke-width="1.5" stroke="#000" fill="#fff"/>
  <path id="svg_7" d="m533.181763,197.59433c-6.357666,-11.315918 -14.135254,-20.476349 -21.93689,-26.885376c-9.103363,6.568909 -20.190338,10.569244 -32.277954,10.569244c-12.111572,0 -23.215088,-4.007782 -32.30188,-10.569244c-7.801514,6.409027 -15.587708,15.569458 -21.96048,26.885376c-14.793274,26.270782 -16.421326,53.219147 -3.643677,60.206146c5.723236,3.147156 11.722565,0.801453 17.921143,-5.083435c-1.08728,5.966553 -1.721375,12.433746 -1.721375,19.197784c0,30.052002 11.849304,54.395844 26.451538,54.395844c8.802338,0 13.159546,-8.864197 15.25473,-22.435333c2.086578,13.571136 6.443787,22.435333 15.213989,22.435333c14.627502,0 26.476929,-24.343842 26.476929,-54.395844c0,-6.764038 -0.635681,-13.231232 -1.746643,-19.197784c6.213867,5.884888 12.206299,8.230591 17.944702,5.083435c12.769531,-6.987 11.119141,-33.935364 -3.674133,-60.206146zm-54.230316,-26.568695c24.57132,0 44.499542,-19.635437 44.499542,-43.858223s-19.928223,-43.857941 -44.499542,-43.857941c-24.579559,0 -44.524567,19.639542 -44.524567,43.857941s19.945007,43.858223 44.524567,43.858223z" stroke-width="1.5" stroke="#000" fill="#fff"/>
  <path id="svg_8" d="m393.650635,232.702087l0,0c0,6.53067 -10.515625,11.823822 -23.489349,11.823822l-10.678101,0l0,0l-51.248138,0l-96.093262,0c-6.229919,0 -12.203568,-1.24588 -16.607666,-3.462891c-4.40712,-2.21701 -6.883423,-5.224548 -6.883423,-8.360931l0,-29.558609l0,0l0,-17.734604l0,0c0,-6.529785 10.518707,-11.823792 23.491089,-11.823792l96.093262,0l66.951569,-30.064133l-15.70343,30.064133l10.678101,0c12.973724,0 23.489349,5.294006 23.489349,11.823792l0,0l0,17.734604l0,29.558609zl0,-29.558609" fill-opacity="null" stroke-opacity="null" stroke-width="1.5" stroke="#000" fill="#fff"/>
  <text transform="matrix(0.405027, 0, 0, 2.17847, 158.56, -59.4751)" xml:space="preserve" text-anchor="start" font-family="Helvetica, Arial, sans-serif" font-size="24" id="svg_9" y="72.450012" x="266.5" fill-opacity="null" stroke-opacity="null" stroke-width="0" stroke="#000" fill="#000000"/>
  <text xml:space="preserve" text-anchor="start" font-family="Helvetica, Arial, sans-serif" font-size="24" id="svg_10" y="59.450012" x="228.5" fill-opacity="null" stroke-opacity="null" stroke-width="0" stroke="#000" fill="#000000">Hey look!</text>
  <text xml:space="preserve" text-anchor="start" font-family="Helvetica, Arial, sans-serif" font-size="24" id="svg_11" y="86.450012" x="203.5" fill-opacity="null" stroke-opacity="null" stroke-width="0" stroke="#000" fill="#000000">I made a thing!</text>
  <text xml:space="preserve" text-anchor="start" font-family="Helvetica, Arial, sans-serif" font-size="24" id="svg_12" y="217.450012" x="202.5" fill-opacity="null" stroke-opacity="null" stroke-width="0" stroke="#000" fill="#000000">You missed a bit</text>
  <text xml:space="preserve" text-anchor="start" font-family="Helvetica, Arial, sans-serif" font-size="24" id="svg_13" y="342.450012" x="227.5" fill-opacity="null" stroke-opacity="null" stroke-width="0" stroke="#000" fill="#000000">Douche bag</text>
  <path id="svg_3" d="m21.226486,67.216576c-7.097683,0 -13.189785,4.208344 -16.171906,10.283768c-1.191006,-0.760162 -2.504627,-1.220482 -3.906651,-1.220482c-4.239681,0 -7.767803,3.899551 -8.858181,9.193085c-1.861279,-0.841148 -4.025372,-1.35038 -6.336994,-1.35038c-6.934982,0 -12.560486,4.338264 -12.560486,9.686539c0,4.827698 4.613611,8.796532 10.607094,9.530716c-0.268604,0.521065 -0.476952,1.037102 -0.476952,1.584152c0,5.120628 12.270172,9.296959 27.392269,9.296959c15.122002,0 27.392235,-4.176331 27.392235,-9.296959c0,-0.344521 -0.187012,-0.652016 -0.295265,-0.9869c0.662354,0.18837 1.31826,0.38958 2.044128,0.38958c4.045494,0.000053 7.336487,-3.142784 7.336487,-7.011681c0,-3.868988 -3.290993,-7.011703 -7.336487,-7.011703c-0.495705,0 -0.917175,0.195801 -1.385437,0.285614c0.409439,-1.546951 0.681389,-3.125458 0.681389,-4.804321c0,-10.241287 -8.108047,-18.567986 -18.125244,-18.567986l0,0z" stroke-opacity="null" stroke-width="0" stroke="#000" fill="#ffffff"/>
  <path id="svg_14" d="m282.226501,118.216576c-7.097687,0 -13.189789,4.208344 -16.171936,10.28376c-1.190979,-0.760155 -2.504608,-1.220474 -3.906647,-1.220474c-4.239655,0 -7.767792,3.899551 -8.85817,9.193085c-1.861282,-0.841141 -4.025375,-1.350388 -6.33699,-1.350388c-6.934982,0 -12.560486,4.338272 -12.560486,9.686554c0,4.827698 4.613602,8.796524 10.607086,9.530701c-0.2686,0.521072 -0.476944,1.037109 -0.476944,1.584167c0,5.120621 12.270157,9.296951 27.392258,9.296951c15.122009,0 27.392242,-4.176331 27.392242,-9.296951c0,-0.344528 -0.187012,-0.652023 -0.295258,-0.986908c0.662354,0.18837 1.318237,0.389587 2.044128,0.389587c4.045471,0.000046 7.336487,-3.142792 7.336487,-7.011688c0,-3.868988 -3.291016,-7.011703 -7.336487,-7.011703c-0.495728,0 -0.917175,0.195801 -1.385437,0.285614c0.409424,-1.546951 0.681396,-3.125458 0.681396,-4.804321c0,-10.241287 -8.108063,-18.567986 -18.125244,-18.567986l0,0z" stroke-opacity="null" stroke-width="0" stroke="#000" fill="#ffffff"/>
  <path id="svg_18" d="m124.226486,-12.783424c-7.097687,0 -13.189789,4.208344 -16.171906,10.283768c-1.19101,-0.760162 -2.504623,-1.220482 -3.906647,-1.220482c-4.239685,0 -7.767807,3.899551 -8.858185,9.193085c-1.861282,-0.841148 -4.025375,-1.35038 -6.33699,-1.35038c-6.934982,0 -12.560486,4.338264 -12.560486,9.686539c0,4.827698 4.613609,8.796532 10.607086,9.530716c-0.2686,0.521065 -0.476944,1.037102 -0.476944,1.584152c0,5.120628 12.270172,9.296959 27.392265,9.296959c15.122002,0 27.392235,-4.176331 27.392235,-9.296959c0,-0.344521 -0.187012,-0.652016 -0.295258,-0.9869c0.662354,0.18837 1.318253,0.38958 2.044128,0.38958c4.045486,0.000053 7.336487,-3.142784 7.336487,-7.011681c0,-3.868988 -3.291,-7.011703 -7.336487,-7.011703c-0.495712,0 -0.917175,0.195801 -1.385437,0.285614c0.409424,-1.546951 0.681381,-3.125458 0.681381,-4.804321c0,-10.241287 -8.108047,-18.567986 -18.125244,-18.567986l0,0z" stroke-opacity="null" stroke-width="0" stroke="#000" fill="#ffffff"/>
  <path id="svg_19" d="m571.377075,40.894596l-14.933594,5.023529l0,-10.041916l14.933594,5.018387zm-10.842102,-24.746048l-6.799561,13.540405l-7.508667,-7.104645l14.308228,-6.43576zm-26.167908,-10.248038l5.314453,14.124053l-10.631592,0l5.317139,-14.124053zm-26.172485,10.248038l14.330566,6.43576l-7.510681,7.104645l-6.819885,-13.540405zm-10.821777,24.746048l14.931091,-5.018387l0,10.041916l-14.931091,-5.023529zm10.821777,24.746059l6.819885,-13.535313l7.510681,7.102112l-14.330566,6.433201l0,0zm26.172485,10.255692l-5.317139,-14.126663l10.631592,0l-5.314453,14.126663zm26.167908,-10.255692l-14.308228,-6.430649l7.490479,-7.10207l6.817749,13.532719zm-44.674072,-24.746059l0,0c0,-9.661772 8.284912,-17.497028 18.506165,-17.497028c10.216553,0 18.503967,7.835257 18.503967,17.497028c0,9.664322 -8.287415,17.499599 -18.503967,17.499599c-10.221252,0 -18.506165,-7.835278 -18.506165,-17.499599l0,0z" stroke-opacity="null" stroke-width="0" stroke="#000" fill="#FFFA8D"/>
  <path id="svg_17" d="m580.226501,12.216577c-7.097717,0 -13.189819,4.208343 -16.171936,10.283767c-1.190979,-0.76016 -2.504639,-1.220486 -3.906616,-1.220486c-4.239685,0 -7.767822,3.899553 -8.858215,9.193085c-1.861267,-0.841143 -4.02533,-1.350376 -6.336975,-1.350376c-6.934998,0 -12.560486,4.338261 -12.560486,9.686539c0,4.827698 4.613586,8.796535 10.607117,9.530716c-0.268616,0.521069 -0.47699,1.037098 -0.47699,1.584152c0,5.120628 12.270203,9.296963 27.392273,9.296963c15.122009,0 27.392212,-4.176334 27.392212,-9.296963c0,-0.344517 -0.187012,-0.652012 -0.295227,-0.986904c0.662354,0.18837 1.318237,0.389584 2.044128,0.389584c4.045471,0.000053 7.336487,-3.142788 7.336487,-7.011681c0,-3.868988 -3.291016,-7.011703 -7.336487,-7.011703c-0.495728,0 -0.917175,0.195797 -1.385437,0.28561c0.409424,-1.546951 0.681396,-3.12545 0.681396,-4.804314c0,-10.241291 -8.108093,-18.567988 -18.125244,-18.567988l0,0z" stroke-opacity="null" stroke-width="0" stroke="#000" fill="#ffffff"/>
 </g>
</svg>